<svg xmlns="http://www.w3.org/2000/svg" viewBox="0 0 421.14 390.62"><defs><style>.cls-1{fill:#005270;}.cls-2{fill:#c7eafb;}.cls-3{fill:#8ed8f8;}.cls-4{fill:#44c8f5;}</style></defs><g id="Layer_2" data-name="Layer 2"><g id="Layer_1-2" data-name="Layer 1"><path d="M194.6,46.36a54.06,54.06,0,1,0,54.06,54.05A54.05,54.05,0,0,0,194.6,46.36Zm0,105.19a51.14,51.14,0,1,1,51.15-51.14A51.14,51.14,0,0,1,194.6,151.55Z"/><path d="M307.67,46.36a54.06,54.06,0,1,0,54.05,54.05A54.05,54.05,0,0,0,307.67,46.36Zm0,105.19a51.14,51.14,0,1,1,51.14-51.14A51.13,51.13,0,0,1,307.67,151.55Z"/><path d="M94.46,153.55A51.14,51.14,0,1,1,132.64,68.4l3-1A54.06,54.06,0,1,0,134,139.25l-2.68-1.41A51,51,0,0,1,94.46,153.55Z"/><polygon points="380.73 154.47 377.81 154.47 377.81 1.83 380.73 0 380.73 154.47"/><path class="cls-1" d="M160.71,189.51A106,106,0,0,0,16.43,229.9l92.34,51.94Z"/><path class="cls-2" d="M201.11,333.79a106,106,0,0,0-40.4-144.28l-51.94,92.33Z"/><path class="cls-3" d="M201.11,333.79h0l-92.34-52L56.83,374.18A105.94,105.94,0,0,0,201.11,333.79Z"/><path class="cls-4" d="M16.43,229.9h0a105.93,105.93,0,0,0,40.4,144.27l51.94-92.34Z"/><path d="M338.37,384.75A102.91,102.91,0,1,1,415.2,213.41l5.94-2.09A108.77,108.77,0,1,0,417.94,356l-5.38-2.84A102.6,102.6,0,0,1,338.37,384.75Z"/><path d="M217.54,281.85A108.84,108.84,0,1,0,187.41,357l21.77,21.77,1.54-6.75L191.35,352.6A108.35,108.35,0,0,0,217.54,281.85ZM108.77,384.75a103,103,0,1,1,78.42-36.31L164.73,326l-1.54,6.75,20.07,20.07A102.57,102.57,0,0,1,108.77,384.75Z"/></g></g></svg>